<svg xmlns="http://www.w3.org/2000/svg" version="1.1" xmlns:xlink="http://www.w3.org/1999/xlink" xmlns:svgjs="http://svgjs.dev/svgjs" width="1500" height="454" viewBox="0 0 1500 454"><g transform="matrix(1,0,0,1,-0.9090909090909918,-0.46516715925784524)"><svg viewBox="0 0 396 120" data-background-color="#0e121c" preserveAspectRatio="xMidYMid meet" height="454" width="1500" xmlns="http://www.w3.org/2000/svg" xmlns:xlink="http://www.w3.org/1999/xlink"><g id="tight-bounds" transform="matrix(1,0,0,1,0.2400000000000091,0.12295167205053303)"><svg viewBox="0 0 395.52 119.75409665589895" height="119.75409665589895" width="395.52"><g><svg viewBox="0 0 571.1604645450027 172.93387307127426" height="119.75409665589895" width="395.52"><g><rect width="7.2329732424431965" height="172.93387307127426" x="149.47300637469775" y="0" fill="#216cad" opacity="1" stroke-width="0" stroke="transparent" fill-opacity="1" class="rect-yte-0" data-fill-palette-color="primary" rx="1%" id="yte-0" data-palette-color="#216cad"></rect></g><g transform="matrix(1,0,0,1,175.64046454500271,0.4301837638588779)"><svg viewBox="0 0 395.52 172.0735055435565" height="172.0735055435565" width="395.52"><g id="textblocktransform"><svg viewBox="0 0 395.52 172.0735055435565" height="172.0735055435565" width="395.52" id="textblock"><g><svg viewBox="0 0 395.52 172.0735055435565" height="172.0735055435565" width="395.52"><g transform="matrix(1,0,0,1,0,0)"><svg width="395.52" viewBox="1.9499999999999957 -31.979999999999997 203.47000000000003 85.52000000000001" height="172.0735055435565" data-palette-color="#216cad"><svg></svg><svg></svg><g class="wordmark-text-0" data-fill-palette-color="primary" id="text-0"><path d="M1.95 0h11.97v-1.27h-3.86v-12.16h4.64l7.81 13.43h7.37c0-0.713-0.193-1.12-0.58-1.22v0c-0.167-0.033-0.363-0.05-0.59-0.05v0h-1.85l-7.87-12.6c3.093-0.747 5.21-2.357 6.35-4.83v0c0.427-0.98 0.64-1.973 0.64-2.98v0c0-2.44-1.06-4.393-3.18-5.86v0c-1.727-1.173-3.857-1.76-6.39-1.76v0h-14.46v1.27h3.91v26.76h-3.91zM10.06-28.03h4.88c2.8 0 4.737 1.14 5.81 3.42v0c0.427 0.947 0.64 1.94 0.64 2.98v0c0 2.34-0.813 4.163-2.44 5.47v0c-1.107 0.88-2.393 1.32-3.86 1.32v0h-5.03zM42.04-20.02v0c2.28 0 3.793 0.96 4.54 2.88v0c0.26 0.62 0.39 1.287 0.39 2v0c0 1.627-0.78 2.62-2.34 2.98v0c-0.813 0.167-1.97 0.233-3.47 0.2v0l-5.17-0.15c0.16-3.74 1.38-6.18 3.66-7.32v0c0.747-0.393 1.543-0.59 2.39-0.59zM50.54-4.69v0l-1.22-0.44c-1.14 2.473-2.98 3.873-5.52 4.2v0c-0.327 0.033-0.637 0.05-0.93 0.05v0c-3.42 0-5.567-2.033-6.44-6.1v0c-0.26-1.14-0.407-2.393-0.44-3.76v0l5.86 0.1c3.967 0.06 6.52-0.317 7.66-1.13v0c0.88-0.647 1.32-1.573 1.32-2.78v0c0-2.213-1.123-3.97-3.37-5.27v0c-1.593-0.947-3.433-1.42-5.52-1.42v0c-4.067 0-6.98 1.693-8.74 5.08v0c-0.907 1.753-1.36 3.737-1.36 5.95v0c0 4.04 1.447 7.037 4.34 8.99v0c1.727 1.14 3.697 1.71 5.91 1.71v0c3.513 0 6.1-1.27 7.76-3.81v0c0.26-0.453 0.49-0.91 0.69-1.37zM71.63 0.49v0c2.507 0 3.89-1.513 4.15-4.54v0c0.033-0.2 0.05-0.38 0.05-0.54v0l-1.27-0.05c-0.227 2.38-0.86 3.583-1.9 3.61v0c-0.847-0.06-1.287-0.903-1.32-2.53v0-10.31c0-4.653-2.327-7.11-6.98-7.37v0c-0.293 0-0.587 0-0.88 0v0c-3.647 0-6.09 0.847-7.33 2.54v0c-0.387 0.553-0.58 1.107-0.58 1.66v0c0 1.007 0.47 1.593 1.41 1.76v0c0.167 0.033 0.33 0.05 0.49 0.05v0c0.747 0 1.3-0.473 1.66-1.42v0c0.453-1.207 0.763-1.923 0.93-2.15v0c0.62-0.813 1.58-1.22 2.88-1.22v0c3.06 0.193 4.64 1.87 4.74 5.03v0 3.08c-7.653 0-12.033 1.593-13.14 4.78v0c-0.193 0.62-0.29 1.287-0.29 2v0c0 2.473 1.09 4.167 3.27 5.08v0c0.88 0.36 1.807 0.54 2.78 0.54v0c2.38 0 4.383-0.813 6.01-2.44v0c0.587-0.62 1.027-1.273 1.32-1.96v0c0.387 2.9 1.72 4.367 4 4.4zM61.91-1.46v0c-1.98 0-3.2-0.993-3.66-2.98v0c-0.093-0.46-0.14-0.967-0.14-1.52v0c0-2.18 1.253-3.563 3.76-4.15v0c1.333-0.293 3.27-0.457 5.81-0.49v0 3.91c-0.493 2.247-1.683 3.827-3.57 4.74v0c-0.747 0.327-1.48 0.49-2.2 0.49zM94.29-5.18l0.39 5.18h6.98c0-0.713-0.243-1.103-0.73-1.17v0c-0.133-0.033-0.297-0.05-0.49-0.05v0h-2.44l-0.1-30.52h-8.3v1.22h4.64v11.92c-1.593-1.76-3.743-2.64-6.45-2.64v0c-3.58 0-6.28 1.593-8.1 4.78v0c-1.107 1.953-1.66 4.153-1.66 6.6v0c0 4.033 1.27 6.977 3.81 8.83v0c1.427 1.013 3.003 1.52 4.73 1.52v0c3.547-0.067 6.12-1.957 7.72-5.67zM82.18-10.45v0c0-4.587 1.237-7.563 3.71-8.93v0c0.78-0.427 1.643-0.64 2.59-0.64v0c2.373 0 4.063 1.27 5.07 3.81v0c0.553 1.367 0.83 2.977 0.83 4.83v0c0 3.907-0.973 6.74-2.92 8.5v0c-1.047 0.947-2.237 1.42-3.57 1.42v0c-2.667 0-4.407-1.63-5.22-4.89v0c-0.327-1.2-0.49-2.567-0.49-4.1zM107.86 7.76v0c-0.52 0-0.91-0.39-1.17-1.17v0c-0.36-0.973-0.703-1.573-1.03-1.8v0c-0.293-0.2-0.633-0.3-1.02-0.3v0c-1.04 0-1.643 0.457-1.81 1.37v0c-0.033 0.127-0.05 0.24-0.05 0.34v0c0 1.24 0.717 2.137 2.15 2.69v0c0.653 0.26 1.337 0.39 2.05 0.39v0c2.573 0 4.803-1.58 6.69-4.74v0c0.78-1.267 1.53-2.78 2.25-4.54v0l7.22-17.82c0.327-0.913 0.687-1.433 1.08-1.56v0c0.227-0.067 0.487-0.1 0.78-0.1v0c0.653 0 1.027-0.18 1.12-0.54v0c0.067-0.193 0.1-0.437 0.1-0.73v0h-7.42v1.27h3.56l-6.25 15.62-6.69-15.62h3.28v-1.27h-9.53v1.27h2.4l8.79 19.48c-1.827 4.3-3.537 6.79-5.13 7.47v0c-0.46 0.193-0.917 0.29-1.37 0.29zM148.24-1.22v0h-3.42v-18.31h5.62v-1.22h-5.62v-0.29c0-5.567 0.83-8.727 2.49-9.48v0c0.36-0.16 0.753-0.24 1.18-0.24v0c1.007 0 1.853 0.6 2.54 1.8v0c0.58 1.047 1 1.667 1.26 1.86v0c0.267 0.193 0.56 0.29 0.88 0.29v0c1.08 0 1.717-0.453 1.91-1.36v0c0.033-0.167 0.05-0.313 0.05-0.44v0c0-1.207-0.813-2.153-2.44-2.84v0c-0.947-0.353-2.007-0.53-3.18-0.53v0c-3.06 0-5.337 1.27-6.83 3.81v0c-1.013 1.753-1.52 3.967-1.52 6.64v0 0.78h-3.42v1.22h3.42v15.38c0 1.5-0.423 2.397-1.27 2.69v0c-0.487 0.16-1.283 0.24-2.39 0.24v0 1.22h11.96c0-0.713-0.243-1.103-0.73-1.17v0c-0.127-0.033-0.29-0.05-0.49-0.05zM156.93-10.4v0c0-5.047 1.383-8.123 4.15-9.23v0c0.72-0.26 1.47-0.39 2.25-0.39v0c3.613 0 5.713 2.28 6.3 6.84v0c0.1 0.78 0.15 1.64 0.15 2.58v0c0 5.473-1.5 8.68-4.5 9.62v0c-0.587 0.167-1.187 0.25-1.8 0.25v0c-3.293 0-5.36-1.953-6.2-5.86v0c-0.233-1.14-0.35-2.41-0.35-3.81zM163.48-21.24v0c-3.127 0-5.733 1.073-7.82 3.22v0c-1.92 1.987-2.88 4.46-2.88 7.42v0c0 4.107 1.5 7.183 4.5 9.23v0c1.82 1.24 3.837 1.86 6.05 1.86v0c3.127 0 5.713-1.107 7.76-3.32v0c1.893-2.02 2.84-4.543 2.84-7.57v0c0-4.1-1.517-7.143-4.55-9.13v0c-1.787-1.14-3.753-1.71-5.9-1.71zM188.28-1.22v0h-3.51v-9.72c0-2.96 0.91-5.337 2.73-7.13v0c0.713-0.68 1.317-1.037 1.81-1.07v0c0.553 0 1.057 0.407 1.51 1.22v0c0.52 0.913 1.01 1.433 1.47 1.56v0c0.193 0.067 0.387 0.1 0.58 0.1v0c0.98 0 1.6-0.473 1.86-1.42v0c0.06-0.193 0.09-0.387 0.09-0.58v0c0-1.467-0.747-2.363-2.24-2.69v0c-0.327-0.06-0.637-0.09-0.93-0.09v0c-1.953 0-3.693 0.83-5.22 2.49v0c-0.72 0.78-1.29 1.657-1.71 2.63v0l-0.2-4.83h-7.08v1.22h3.66v15.38c0 1.5-0.423 2.397-1.27 2.69v0c-0.487 0.16-1.283 0.24-2.39 0.24v0 1.22h12.06c0-0.713-0.243-1.103-0.73-1.17v0c-0.133-0.033-0.297-0.05-0.49-0.05z" fill="#216cad" fill-rule="nonzero" stroke="none" stroke-width="1" stroke-linecap="butt" stroke-linejoin="miter" stroke-miterlimit="10" stroke-dasharray="" stroke-dashoffset="0" font-family="none" font-weight="none" font-size="none" text-anchor="none" style="mix-blend-mode: normal" data-fill-palette-color="primary" opacity="1"></path><path transform="translate(0,44.26)" d="M1.95 0h11.97v-1.27h-3.86v-12.16h4.64l7.81 13.43h7.37c0-0.713-0.193-1.12-0.58-1.22v0c-0.167-0.033-0.363-0.05-0.59-0.05v0h-1.85l-7.87-12.6c3.093-0.747 5.21-2.357 6.35-4.83v0c0.427-0.98 0.64-1.973 0.64-2.98v0c0-2.44-1.06-4.393-3.18-5.86v0c-1.727-1.173-3.857-1.76-6.39-1.76v0h-14.46v1.27h3.91v26.76h-3.91zM10.06-28.03h4.88c2.8 0 4.737 1.14 5.81 3.42v0c0.427 0.947 0.64 1.94 0.64 2.98v0c0 2.34-0.813 4.163-2.44 5.47v0c-1.107 0.88-2.393 1.32-3.86 1.32v0h-5.03zM48.97 0.49v0c2.507 0 3.893-1.513 4.16-4.54v0c0.027-0.2 0.04-0.38 0.04-0.54v0l-1.27-0.05c-0.227 2.38-0.86 3.583-1.9 3.61v0c-0.847-0.06-1.287-0.903-1.32-2.53v0-10.31c0-4.653-2.327-7.11-6.98-7.37v0c-0.293 0-0.587 0-0.88 0v0c-3.647 0-6.087 0.847-7.32 2.54v0c-0.393 0.553-0.59 1.107-0.59 1.66v0c0 1.007 0.473 1.593 1.42 1.76v0c0.16 0.033 0.32 0.05 0.48 0.05v0c0.753 0 1.307-0.473 1.66-1.42v0c0.46-1.207 0.77-1.923 0.93-2.15v0c0.62-0.813 1.58-1.22 2.88-1.22v0c3.06 0.193 4.64 1.87 4.74 5.03v0 3.08c-7.653 0-12.033 1.593-13.14 4.78v0c-0.193 0.62-0.29 1.287-0.29 2v0c0 2.473 1.09 4.167 3.27 5.08v0c0.88 0.36 1.81 0.54 2.79 0.54v0c2.373 0 4.373-0.813 6-2.44v0c0.587-0.62 1.027-1.273 1.32-1.96v0c0.393 2.9 1.727 4.367 4 4.4zM39.26-1.46v0c-1.987 0-3.207-0.993-3.66-2.98v0c-0.1-0.46-0.15-0.967-0.15-1.52v0c0-2.18 1.253-3.563 3.76-4.15v0c1.333-0.293 3.27-0.457 5.81-0.49v0 3.91c-0.487 2.247-1.673 3.827-3.56 4.74v0c-0.753 0.327-1.487 0.49-2.2 0.49zM71.63-5.18l0.39 5.18h6.98c0-0.713-0.243-1.103-0.73-1.17v0c-0.127-0.033-0.29-0.05-0.49-0.05v0h-2.44l-0.1-30.52h-8.3v1.22h4.64v11.92c-1.593-1.76-3.74-2.64-6.44-2.64v0c-3.58 0-6.283 1.593-8.11 4.78v0c-1.107 1.953-1.66 4.153-1.66 6.6v0c0 4.033 1.27 6.977 3.81 8.83v0c1.433 1.013 3.013 1.52 4.74 1.52v0c3.547-0.067 6.117-1.957 7.71-5.67zM59.52-10.45v0c0-4.587 1.237-7.563 3.71-8.93v0c0.78-0.427 1.643-0.64 2.59-0.64v0c2.373 0 4.067 1.27 5.08 3.81v0c0.553 1.367 0.83 2.977 0.83 4.83v0c0 3.907-0.977 6.74-2.93 8.5v0c-1.04 0.947-2.23 1.42-3.57 1.42v0c-2.667 0-4.407-1.63-5.22-4.89v0c-0.327-1.2-0.49-2.567-0.49-4.1zM91.65-1.22v0h-2.44v-19.53h-7.57v1.22h3.91v15.38c0 1.5-0.507 2.41-1.52 2.73v0c-0.487 0.133-1.283 0.2-2.39 0.2v0 1.22h11.23c0-0.713-0.243-1.103-0.73-1.17v0c-0.167-0.033-0.33-0.05-0.49-0.05zM89.79-27.88v0c0-1.14-0.503-1.953-1.51-2.44v0c-0.387-0.167-0.76-0.25-1.12-0.25v0c-1.14 0-1.953 0.523-2.44 1.57v0c-0.167 0.353-0.25 0.727-0.25 1.12v0c0 1.207 0.537 2.037 1.61 2.49v0c0.36 0.127 0.72 0.19 1.08 0.19v0c1.14 0 1.937-0.52 2.39-1.56v0c0.16-0.353 0.24-0.727 0.24-1.12zM100.44-10.4v0c0-5.047 1.383-8.123 4.15-9.23v0c0.713-0.26 1.463-0.39 2.25-0.39v0c3.613 0 5.71 2.28 6.29 6.84v0c0.1 0.78 0.15 1.64 0.15 2.58v0c0 5.473-1.497 8.68-4.49 9.62v0c-0.587 0.167-1.19 0.25-1.81 0.25v0c-3.287 0-5.353-1.953-6.2-5.86v0c-0.227-1.14-0.34-2.41-0.34-3.81zM106.98-21.24v0c-3.127 0-5.73 1.073-7.81 3.22v0c-1.92 1.987-2.88 4.46-2.88 7.42v0c0 4.107 1.497 7.183 4.49 9.23v0c1.827 1.24 3.847 1.86 6.06 1.86v0c3.12 0 5.707-1.107 7.76-3.32v0c1.887-2.02 2.83-4.543 2.83-7.57v0c0-4.1-1.513-7.143-4.54-9.13v0c-1.787-1.14-3.757-1.71-5.91-1.71zM130.96-1.22v0h-2.64v-30.52h-7.32v1.22h3.66v26.37c0 1.5-0.423 2.397-1.27 2.69v0c-0.487 0.16-1.283 0.24-2.39 0.24v0 1.22h11.18c0-0.713-0.243-1.103-0.73-1.17v0c-0.133-0.033-0.297-0.05-0.49-0.05zM139.6-10.4v0c0-5.047 1.383-8.123 4.15-9.23v0c0.713-0.26 1.463-0.39 2.25-0.39v0c3.613 0 5.71 2.28 6.29 6.84v0c0.1 0.78 0.15 1.64 0.15 2.58v0c0 5.473-1.497 8.68-4.49 9.62v0c-0.587 0.167-1.19 0.25-1.81 0.25v0c-3.287 0-5.353-1.953-6.2-5.86v0c-0.227-1.14-0.34-2.41-0.34-3.81zM146.14-21.24v0c-3.12 0-5.723 1.073-7.81 3.22v0c-1.92 1.987-2.88 4.46-2.88 7.42v0c0 4.107 1.497 7.183 4.49 9.23v0c1.827 1.24 3.847 1.86 6.06 1.86v0c3.12 0 5.707-1.107 7.76-3.32v0c1.887-2.02 2.83-4.543 2.83-7.57v0c0-4.1-1.513-7.143-4.54-9.13v0c-1.787-1.14-3.757-1.71-5.91-1.71zM164.89-13.53v0c0.067-4.293 1.697-6.457 4.89-6.49v0c3.187 0.067 4.797 2.23 4.83 6.49v0c-0.067 4.433-1.677 6.663-4.83 6.69v0c-3.227-0.06-4.857-2.29-4.89-6.69zM169.82-21.24v0c-2.927 0-5.253 0.943-6.98 2.83v0c-1.233 1.4-1.85 3.043-1.85 4.93v0c0 2.473 1.203 4.527 3.61 6.16v0c0.227 0.16 0.453 0.307 0.68 0.44v0c-2.08 0-3.38 0.893-3.9 2.68v0c-0.1 0.427-0.15 0.85-0.15 1.27v0c0.033 1.727 0.733 3.013 2.1 3.86v0c-1.073 1.14-1.61 2.293-1.61 3.46v0c0 1.793 1.057 3.13 3.17 4.01v0c1.333 0.587 2.977 0.88 4.93 0.88v0c4.953 0 8.227-1.207 9.82-3.62v0c0.52-0.813 0.78-1.673 0.78-2.58v0c0-2.8-1.61-4.413-4.83-4.84v0c-0.427-0.067-0.867-0.1-1.32-0.1v0l-8.89-0.19c-1.5-0.1-2.263-0.75-2.29-1.95v0c0-0.847 0.537-1.387 1.61-1.62v0c0.227-0.027 0.47-0.04 0.73-0.04v0l4.3 0.04c2.893 0 5.203-0.973 6.93-2.92v0c1.24-1.4 1.86-3.063 1.86-4.99v0c-0.033-2.44-0.98-4.39-2.84-5.85v0c0.293-1.047 0.847-1.667 1.66-1.86v0c0.133-0.033 0.263-0.05 0.39-0.05v0c0.46 0 0.95 0.243 1.47 0.73v0c0.36 0.327 0.687 0.49 0.98 0.49v0c0.813-0.193 1.283-0.713 1.41-1.56v0c0-1.007-0.47-1.69-1.41-2.05v0c-0.36-0.133-0.72-0.2-1.08-0.2v0c-1.527 0-2.763 0.683-3.71 2.05v0c-0.36 0.527-0.637 1.097-0.83 1.71v0c-1.467-0.747-3.047-1.12-4.74-1.12zM169.82 8.01v0c-3.22 0-5.253-0.847-6.1-2.54v0c-0.227-0.453-0.34-0.91-0.34-1.37v0c0.033-0.88 0.423-1.76 1.17-2.64v0c0.653 0.133 1.19 0.2 1.61 0.2v0l7.52 0.1c2.44 0.033 3.857 0.587 4.25 1.66v0c0.1 0.26 0.15 0.583 0.15 0.97v0c0 1.433-1.337 2.477-4.01 3.13v0c-1.3 0.327-2.717 0.49-4.25 0.49zM187.06 7.76v0c-0.52 0-0.91-0.39-1.17-1.17v0c-0.36-0.973-0.703-1.573-1.03-1.8v0c-0.293-0.2-0.633-0.3-1.02-0.3v0c-1.04 0-1.643 0.457-1.81 1.37v0c-0.033 0.127-0.05 0.24-0.05 0.34v0c0 1.24 0.717 2.137 2.15 2.69v0c0.653 0.26 1.337 0.39 2.05 0.39v0c2.573 0 4.803-1.58 6.69-4.74v0c0.78-1.267 1.53-2.78 2.25-4.54v0l7.22-17.82c0.327-0.913 0.687-1.433 1.08-1.56v0c0.227-0.067 0.487-0.1 0.78-0.1v0c0.653 0 1.027-0.18 1.12-0.54v0c0.067-0.193 0.1-0.437 0.1-0.73v0h-7.42v1.27h3.56l-6.25 15.62-6.69-15.62h3.27v-1.27h-9.52v1.27h2.4l8.78 19.48c-1.82 4.3-3.527 6.79-5.12 7.47v0c-0.46 0.193-0.917 0.29-1.37 0.29z" fill="#216cad" fill-rule="nonzero" stroke="none" stroke-width="1" stroke-linecap="butt" stroke-linejoin="miter" stroke-miterlimit="10" stroke-dasharray="" stroke-dashoffset="0" font-family="none" font-weight="none" font-size="none" text-anchor="none" style="mix-blend-mode: normal" data-fill-palette-color="primary" opacity="1"></path></g></svg></g></svg></g></svg></g></svg></g><g transform="matrix(1,0,0,1,0,0.4301837638588779)"><svg viewBox="0 0 130.53852144683597 172.0735055435565" height="172.0735055435565" width="130.53852144683597"><g><svg xmlns="http://www.w3.org/2000/svg" viewBox="10 4 44 58" x="0" y="0" height="172.0735055435565" width="130.53852144683597" class="icon-icon-0" data-fill-palette-color="accent" id="icon-0"><g data-name="line expand" fill="#d56db5" data-fill-palette-color="accent"><path d="M27 22V23A5 5 0 0 0 37 23V22A6.006 6.006 0 0 0 43 16V15A7.01 7.01 0 0 0 36 8H28A7.01 7.01 0 0 0 21 15V16A6.006 6.006 0 0 0 27 22M23 15A5.006 5.006 0 0 1 28 10H36A5.006 5.006 0 0 1 41 15V16A4 4 0 0 1 37 20H35V23A3 3 0 0 1 33 25.816V23H31V25.816A3 3 0 0 1 29 23V20H27A4 4 0 0 1 23 16Z" fill="#d56db5" data-fill-palette-color="accent"></path><path d="M28 18A3 3 0 1 0 25 15 3 3 0 0 0 28 18M28 14A1 1 0 1 1 27 15 1 1 0 0 1 28 14" fill="#d56db5" data-fill-palette-color="accent"></path><path d="M36 18A3 3 0 1 0 33 15 3 3 0 0 0 36 18M36 14A1 1 0 1 1 35 15 1 1 0 0 1 36 14" fill="#d56db5" data-fill-palette-color="accent"></path><rect x="31" y="19" width="2" height="2" fill="#d56db5" data-fill-palette-color="accent"></rect><rect x="31" y="30" width="2" height="2" fill="#d56db5" data-fill-palette-color="accent"></rect><path d="M30 31A1 1 0 0 0 29 30H22V29A1 1 0 0 0 20 29V32H29A1 1 0 0 0 30 31" fill="#d56db5" data-fill-palette-color="accent"></path><path d="M42 29V30H35A1 1 0 0 0 35 32H44V29A1 1 0 0 0 42 29" fill="#d56db5" data-fill-palette-color="accent"></path><path d="M23 56V62H41V42H49A5.006 5.006 0 0 0 54 37V28A5.006 5.006 0 0 0 49 23H48V4H16V23H15A5.006 5.006 0 0 0 10 28V37A5.006 5.006 0 0 0 15 42H23zM48 36V25H49A3 3 0 0 1 52 28V37A3 3 0 0 1 49 40H48ZM16 34V40H15A3 3 0 0 1 12 37V28A3 3 0 0 1 15 25H16ZM39 60H33V58H31V60H25V56H39ZM18 23V6H46V34H18ZM34 36A2 2 0 0 1 30 36ZM18 40V36H28A4 4 0 0 0 36 36H46V40H39V54H25V40Z" fill="#d56db5" data-fill-palette-color="accent"></path></g></svg></g></svg></g></svg></g><defs></defs></svg><rect width="395.52" height="119.75409665589895" fill="none" stroke="none" visibility="hidden"></rect></g></svg></g></svg>