<?xml version="1.0" encoding="utf-8"?>
<!-- Generator: Adobe Illustrator 15.1.0, SVG Export Plug-In . SVG Version: 6.00 Build 0)  -->
<!DOCTYPE svg PUBLIC "-//W3C//DTD SVG 1.0//EN" "http://www.w3.org/TR/2001/REC-SVG-20010904/DTD/svg10.dtd">
<svg version="1.0" id="Layer_1" xmlns="http://www.w3.org/2000/svg" xmlns:xlink="http://www.w3.org/1999/xlink" x="0px" y="0px"
	 width="375px" height="380px" viewBox="0 0 375 380" enable-background="new 0 0 375 380" xml:space="preserve">
<g>
	<defs>
		<path id="SVGID_1_" d="M123.5,69.777l133.334,1.333c0,0,67.333,26.667,69.333,26.667s43.333,38.667,43.333,38.667l-9.333,54.667
			l-70,56l-38,43.334l-34.667,18l-52.667,15.333l-14,16.667l-46.667-10.667c0,0-62,8.667-62,6.667S12.833,273.11,12.833,273.11
			L9.5,137.777l31.333-58L123.5,69.777z"/>
	</defs>
	<clipPath id="SVGID_2_">
		<use xlink:href="#SVGID_1_"  overflow="visible"/>
	</clipPath>
	<path clip-path="url(#SVGID_2_)" fill="#7DA7D9" stroke="#7DA7D9" d="M278.346,164.656c-8.619,0.383-21.937-2.469-32.364-6.733
		c7.069-2.62,12.222-6.466,17.6-10.812c0.784-0.634,0.907-1.786,0.272-2.571c-0.636-0.785-1.785-0.906-2.571-0.273
		c-6.229,5.034-11.676,9.072-20.241,11.429c-0.016,0.004-0.025,0.015-0.04,0.02c-0.045-0.004-0.089-0.008-0.136-0.014
		c-0.136-0.028-0.264-0.052-0.397-0.049c-3.604-0.498-11.912-2.709-17.548-6.034c-0.091-0.104-0.18-0.208-0.287-0.3
		c-8.813-7.552-10.572-21.686-9.031-29.253c0.018-0.052,0.045-0.097,0.061-0.149c1.838-6.317,11.035-46.295,14.973-53.032
		c1.53-2.614,0.648-5.973-1.965-7.502c-2.615-1.528-5.973-0.649-7.502,1.966c-4.762,8.144-14.238,49.331-16.024,55.464
		c-3.949,7.624-15.768,20.993-50.988,28.946c-4.711,1.063-8.791,2.442-12.355,4.054c-0.002,0-0.005-0.001-0.008-0.001
		c-6.549,0.614-17.661-2.056-24.769-5.952c-0.884-0.485-1.995-0.161-2.481,0.724c-0.485,0.886-0.161,1.996,0.724,2.481
		c3.202,1.755,7.529,3.432,12.058,4.646c-10.06,0.738-20.883,2.153-27.624,4.85c-0.938,0.375-1.394,1.438-1.019,2.375
		c0.375,0.938,1.439,1.394,2.376,1.019c6.061-2.424,17.286-4.152,31.849-4.931c-7.571,5.696-11.69,12.754-14.696,19.48l-1.406,3.135
		c-0.717,1.592-1.507,3.352-2.341,5.227c-11.113,6.876-26.462,13.213-35.14,14.483c-1,0.145-1.691,1.073-1.545,2.072
		c0.146,0.999,1.075,1.69,2.073,1.544c4.147-0.607,9.577-2.235,15.356-4.493c-6.325,7.107-14.898,17.613-18.413,24.974
		c-0.434,0.911-0.05,2.004,0.862,2.438c0.911,0.436,2.003,0.049,2.438-0.862c4.557-9.548,18.744-25.404,23.431-30.133
		c2.866-1.347,5.709-2.794,8.426-4.31c-4.697,10.835-10.25,24.609-14.211,38.621c-0.412,1.457,0.436,2.972,1.893,3.384
		c1.457,0.412,2.972-0.436,3.384-1.892c5.356-18.95,13.764-37.64,18.787-48.803l1.413-3.148
		c4.744-10.615,11.921-21.068,32.146-25.634c4.881-1.103,9.34-2.316,13.423-3.609c-10.661,11.041-18.651,19.497-24.96,28.273
		c-0.131,0.074-0.27,0.134-0.383,0.243c-5.349,5.11-15.907,12.981-19.015,15.272c-0.813,0.599-0.987,1.744-0.388,2.557
		c0.599,0.813,1.742,0.987,2.557,0.388c3.328-2.452,10.674-7.955,16.157-12.682c0.058,10.661,2.776,25.063,3.126,26.865
		c0.192,0.99,1.151,1.641,2.141,1.447c0.993-0.192,1.64-1.149,1.448-2.142c-1.702-8.796-3.47-21.645-2.971-29.403
		c6.748-9.482,15.601-18.643,27.789-31.251l1.205-1.247c0.226-0.232,0.349-0.515,0.428-0.806
		c16.584-6.328,25.635-13.979,30.553-20.24c-0.329,6.013,0.603,12.027,1.812,17.822c1.562,7.503,0.797,9.246-1.248,13.898
		l-2.302,5.621c-0.476,1.299-0.857,2.877-1.158,4.644c-0.013,0.017-0.034,0.025-0.045,0.044c-0.906,1.289-2.181,2.758-3.652,4.458
		c-5.471,6.313-12.963,14.961-14.265,28.174c-1.715,17.396,1.344,25.664,4.563,31.456c0.489,0.884,1.603,1.202,2.485,0.712
		c0.883-0.491,1.2-1.604,0.71-2.486c-3.093-5.565-5.733-12.971-4.12-29.323c1.188-12.055,8.239-20.195,13.39-26.14
		c0.104-0.119,0.197-0.228,0.298-0.344c-0.336,8.948,1.076,20.772,5.006,32.952c0.012,0.056-0.002,0.11,0.015,0.165
		c2.588,8.594,3.554,29.865-2.404,50.255c-0.283,0.968,0.272,1.982,1.242,2.267c0.968,0.283,1.983-0.272,2.267-1.243
		c4.994-17.092,5.511-35.682,3.54-47.258c3.561,4.368,8.922,8.947,14.509,13.713c8.783,7.491,18.736,15.98,21.665,24.062
		c0.344,0.948,1.393,1.438,2.342,1.095c0.95-0.344,1.438-1.392,1.095-2.341c-3.258-8.988-13.157-17.432-22.729-25.598
		c-6.847-5.84-13.34-11.388-16.137-16.191c-0.002-0.01-0.002-0.021-0.006-0.032c-5.694-17.296-6.031-34.113-3.458-41.154
		l2.172-5.298c2.049-4.667,3.114-7.542,2.186-13.922c1.693,3.202,3.898,6.167,6.726,8.614c2.128,6.775,2.102,25.532,0.313,35.148
		c-0.186,0.991,0.47,1.946,1.463,2.13c0.991,0.186,1.945-0.47,2.131-1.462c1.265-6.802,1.776-19.099,0.98-28.386
		c0.06,0.111,0.11,0.204,0.172,0.317c5.301,9.649,15.17,27.611,16.935,45.283c0.102,1.005,0.997,1.738,2.002,1.638
		c1.005-0.102,1.738-0.997,1.637-2.002c-1.841-18.413-11.941-36.802-17.368-46.68c-1.081-1.967-1.974-3.596-2.519-4.719
		c5.756,2.631,12.235,4.197,15.373,4.626c11.271,5.533,28.04,9.484,38.421,9.023c1.007-0.045,1.789-0.898,1.744-1.907
		C280.208,165.393,279.354,164.611,278.346,164.656z"/>
	<path clip-path="url(#SVGID_2_)" fill="#F16548" stroke="#F16548" d="M212.146,233.354c-0.464-1.925-2.398-3.11-4.321-2.647
		c-14.71,3.537-31.645,9.509-34.468,24.406c-7.326-8.461-20.081-15.527-30.107-21.073l-1.391-0.776
		c-1.089-6.334,0.006-11.934,1.087-17.345c0.576-2.87,1.119-5.582,1.351-8.386c0.084-1.006-0.663-1.89-1.668-1.974
		c-1.008-0.084-1.891,0.664-1.973,1.669c-0.219,2.596-0.741,5.207-1.294,7.973c-0.971,4.85-2.034,10.256-1.436,16.295
		c-0.14-0.001-0.278,0.006-0.416,0.026c-7.681-4.213-27.562-13.125-35.626-15.604c-0.965-0.298-1.988,0.243-2.284,1.209
		c-0.297,0.964,0.245,1.987,1.209,2.283c6.797,2.092,22.958,9.214,31.737,13.632c-10.506,0.837-26.35,5.828-33.999,9.227
		c-0.923,0.41-1.338,1.49-0.928,2.414c0.41,0.922,1.49,1.339,2.412,0.928c9.691-4.309,27.751-9.325,36.077-9.042
		c0.121,0.097,0.247,0.191,0.386,0.271l3.978,2.215c11.504,6.367,28.67,15.87,32.342,25.849
		c0.418,16.615,12.096,51.855,13.44,55.084c0.76,1.826,2.858,2.69,4.683,1.931c1.828-0.761,2.692-2.858,1.931-4.685
		c-3.957-9.5-13.889-45.512-12.705-59.198c0.823-9.525,9.597-15.614,29.333-20.36C211.424,237.21,212.608,235.276,212.146,233.354z"
		/>
	<path clip-path="url(#SVGID_2_)" fill="#0072BC" stroke="#0072BC" d="M238.662,219.271c-8.713-0.706-26.043,3.259-35.563,6.609
		c-6.334,1.765-12.194,4.477-17.361,7.879c8.206-19.645,32.373-45.063,52.479-60.197c1.008-0.76,1.21-2.191,0.451-3.199
		c-0.76-1.008-2.191-1.211-3.2-0.452c-19.657,14.798-43.144,39.337-52.705,59.353c-0.364-4.826-1.579-9.318-3.583-12.752
		c-0.635-1.09-2.034-1.458-3.124-0.82c-1.091,0.635-1.459,2.034-0.822,3.125c3.04,5.212,3.916,13.832,2.21,21.548
		c-7.025,6.77-11.806,15.002-13.367,23.565c-5.02-11.104-14.647-21.909-26.357-29.364c-1.075-6.251-0.111-11.813,0.845-17.19
		c0.457-2.563,0.924-5.212,1.15-7.851c2.78-11.237,8.785-20.854,12.765-27.222c0.535-0.855,0.275-1.984-0.581-2.52
		c-0.856-0.534-1.985-0.273-2.519,0.582c-3.642,5.824-8.918,14.286-12.103,24.359c-2.077-7.652-8.855-20.75-15.239-32.75
		l-2.832-5.395c-0.47-0.895-1.593-1.271-2.485-0.801c-0.894,0.469-1.253,1.54-0.787,2.435l2.877,5.478
		c4.842,9.103,14.918,28.038,15.445,34.524c0.009,0.11,0.059,0.204,0.088,0.308c-0.038,0.148-0.072,0.3-0.085,0.458
		c-0.201,2.415-0.635,4.853-1.094,7.434c-0.828,4.663-1.723,9.835-1.28,15.606c-0.067-0.056-0.127-0.118-0.2-0.169
		c-2.153-1.474-7.596-4.072-13.747-6.741c-3.292-10.605-11.415-28.043-15.914-33.966c-0.764-1.005-2.197-1.2-3.202-0.436
		c-1.005,0.763-1.2,2.196-0.437,3.201c3.413,4.492,10.16,18.284,13.938,28.827c-5.99-2.47-11.93-4.722-15.654-5.868
		c-1.141-0.351-2.327,0.088-3,0.996c-7.489-2.063-20.384-4.379-24.415-4.653c-1.007-0.069-1.879,0.691-1.947,1.699
		c-0.069,1.007,0.691,1.879,1.698,1.947c4.602,0.313,19.909,3.235,25.913,5.194c0.047,0.018,0.09,0.044,0.139,0.06
		c0.154,0.047,0.32,0.101,0.481,0.15c0.273,0.099,0.545,0.194,0.762,0.286c0.098,0.04,0.198,0.035,0.297,0.058
		c8.631,2.875,24.882,9.76,30.607,12.939c-10.449,0.155-26.642,4.718-34.325,8.133c-1.152,0.512-1.673,1.862-1.16,3.016
		c0.512,1.153,1.863,1.673,3.016,1.16c10.572-4.698,30.2-9.042,36.85-7.397c12.678,7.536,23.153,19.843,26.716,31.362
		c0.849,8.295,8.948,42.003,12.894,53.571c1.223,3.584,5.117,5.498,8.7,4.275c3.584-1.222,5.499-5.117,4.275-8.699
		c-3.375-9.898-11.438-42.605-12.253-50.748c-0.028-0.271-0.102-0.521-0.16-0.783c0.347-15.518,15.635-31.363,35.427-36.12
		c0.224-0.054,0.43-0.137,0.634-0.222c7.24,2.221,10.216,4.548,15.039,11.466c0.721,1.035,2.146,1.29,3.182,0.567
		c1.035-0.721,1.288-2.146,0.568-3.181c-5.009-7.183-8.744-10.276-15.88-12.709c9.05-2.567,21.233-5.009,27.491-4.501
		c1.509,0.122,2.833-1.001,2.954-2.512C241.296,220.718,240.172,219.396,238.662,219.271z"/>
	<path clip-path="url(#SVGID_2_)" fill="#87C879" stroke="#87C879" d="M134.5,330.777c36-28,4.469-70.769,1.86-72.258
		c-1.978-1.133-3.946-1.382-5.7-0.735c-2.125,0.789-3.867,2.832-4.904,5.75c-0.958,2.704-1.369,5.934-1.604,9.511
		c0.775,3.756,2.272,5.634,2.871,8.037c0.663,2.662,1.333,6.438,1.551,8.441c0.224,1.993-0.218,2.22,1.781,6.217
		c2,3.993,2,14.435-3.551,18.656c-4.32,3.28-10.665,2.44-13.995-0.667c-3.333-3.108-3.113-11.545-1.556-15.768
		c1.556-4.224,2.443-5.773,2.443-9.328s2.219-9.996,4.218-12.883c0.323-0.464,0.578-0.795,0.791-1.049
		c0.241-4.798,0.679-9.136,2.03-12.949c1.57-4.434,4.441-7.616,8.076-8.968c3.231-1.197,6.85-0.809,10.196,1.105
		c0.387,0.221,0.759,0.498,1.142,0.75c-0.668-6.14,1.532-15.983,2.137-17.789c0.607-1.805-2.637-7.9-6.852-11.108
		c-6.155-4.689-12.109-4.5-14.807-3.528c-5.758,2.076-8.849,1.224-10.427,0.141c-1.437-0.986-2.252-2.584-2.295-4.504
		c-0.019-0.826,0.635-1.512,1.461-1.529c0.827-0.021,1.512,0.635,1.529,1.461c0.023,0.973,0.349,1.66,0.996,2.104
		c1.396,0.957,4.209,0.779,7.722-0.485c3.274-1.182,11.045-1.839,17.875,3.069c2.658,1.91,7.947,6.883,8.653,11.425
		c2.119-3.02,9.128-6.606,13.157-8.018c4.027-1.414,15.02-3.631,23.778-4.727l2.383-0.286c10.232-1.214,24.246-2.875,32.498-14.075
		c9.885-13.417,28.567-24.195,38.665-24.869c0.823-0.055,1.536,0.568,1.592,1.393c0.054,0.824-0.567,1.537-1.393,1.593
		c-9.253,0.616-27.19,11.085-36.457,23.658c-9.02,12.245-23.777,13.994-34.553,15.271l-2.361,0.284
		c-8.65,1.081-19.21,3.753-22.658,5.122c-2.617,0.873-11.558,5.86-13.499,9.443c-0.653,1.204-5.417,10.811-0.797,19.812
		c9.077,17.673,22.003,54.28-5.997,74.28"/>
	<g clip-path="url(#SVGID_2_)">
		<g opacity="0.6">
			<path fill="#BB93C3" d="M22.708,178.184c1.183-21.592,6.51-34.9,10.351-43.774c3.846-8.871,16.292-43.408,68.618-37.855
				c39.039,4.138,66.542,11.535,95.819,15.972c13.238,2.007,69.236,7.427,80.15,8.282c15.084,1.183,43.479,1.772,49.394,2.366
				c5.914,0.589,40.223,0.294,21.887,36.378c-15.163,29.836-17.749,28.692-27.806,38.449c-10.056,9.759-34.192,23.375-51.462,28.988
				c-22.773,7.391-31.646,2.656-32.828,1.478c-1.183-1.184,1.475,0.887-12.424,7.69c-13.899,6.798-50.274,22.771-64.172,31.941
				c-13.896,9.163-58.939,29.324-69.885,35.534c-10.939,6.211-16.042,9.043-26.057,11.848c-11.087,3.104-28.868,5.853-29.161-13.369
				c-0.294-19.229-2.816-25.177-7.099-50.874C19.751,201.551,22.347,184.789,22.708,178.184z"/>
		</g>
		<g>
			<path fill="#F9ECE6" d="M223.851,115.919c11.864,6.251,3.233,27.222,1.259,37.639c-2.966,19.802-0.991,43.765,4.939,61.476
				c1.979,5.204,6.222,13.848,6.222,13.848c0.985-3.121,0-5.491-0.239-10.507c-8.9-15.629-8.947-33.545-6.965-52.311
				c0.982-16.672,11.86-27.093,13.832-42.729h0.987c0.99-2.085,0.99-2.085,1.979-2.085v-1.041l0.99-1.044c0.981,0,0.981,0,1.979,0
				c0-1.041,0-1.041,0.981-1.041"/>
			<g>
				<path fill="#D8C5DF" d="M223.734,116.118c8.397,4.701,6.13,16.253,4.376,23.962c-0.92,4.042-2.116,8.015-3.032,12.058
					c-1.194,5.271-1.422,10.87-1.61,16.253c-0.424,12.135,0.696,24.387,3.303,36.244c1.902,8.654,5.258,16.533,9.127,24.465
					c0.17,0.348,0.693,0.236,0.79-0.103c0.981-3.467-0.008-7.106-0.21-10.622c-0.031-0.543-0.632-1.257-0.881-1.721
					c-0.666-1.238-1.256-2.515-1.825-3.799c-1.107-2.496-1.966-5.1-2.706-7.725c-2.839-10.065-2.932-20.721-2.255-31.08
					c0.326-4.99,0.632-10.103,1.73-14.988c1.03-4.584,2.889-8.942,4.833-13.2c1.74-3.811,3.574-7.578,5.114-11.477
					c0.822-2.081,1.482-4.211,2.022-6.381c0.247-0.991,0.433-1.995,0.607-3.001c0.166-0.956-0.188-1.21,0.768-1.213
					c0.15,0,0.327-0.084,0.395-0.226c0.312-0.656,0.63-1.846,1.585-1.886c0.229-0.01,0.436-0.188,0.43-0.429
					c-0.045-1.698,0.97-1.709,2.54-1.683c0.226,0.004,0.394-0.186,0.402-0.402c0.193-0.199,0.386-0.398,0.579-0.598
					c0.572,0.003,0.569-0.908,0-0.886c-0.703,0.028-1.394,0.103-1.387,0.976c0.001,0.229-1.607,0.076-1.771,0.171
					c-0.37,0.217-0.672,0.688-0.973,0.991c-0.183,0.184-0.221,0.293-0.228,0.553c-0.025,0.982,0.228,0.333-0.364,0.496
					c-1.247,0.343-0.836,2.011-2.196,2.008c-0.184,0-0.415,0.139-0.442,0.337c-1.235,8.923-5.462,16.757-9.043,24.89
					c-1.634,3.711-3.005,7.521-3.898,11.481c-1.062,4.703-1.262,9.671-1.604,14.467c-0.688,9.661-0.502,19.44,1.661,28.916
					c0.998,4.37,2.538,8.596,4.481,12.63c1.799,3.733,2.966,8.994,1.8,13.17c0.264-0.034,0.526-0.068,0.79-0.103
					c-1.566-3.181-3.069-6.395-4.502-9.638c-2.296-5.196-3.769-10.639-4.963-16.184c-2.727-12.646-3.565-25.762-2.83-38.667
					c0.295-5.193,0.901-10.302,2.176-15.346c1.128-4.468,2.34-8.911,3.104-13.461c1.168-6.953,1.375-15.751-5.661-19.649
					C223.707,115.576,223.476,115.973,223.734,116.118L223.734,116.118z"/>
			</g>
		</g>
		<g>
			<path fill="none" d="M22.83,178.361c1.184-21.621,6.517-34.945,10.364-43.831c3.85-8.882,16.313-43.464,68.706-37.905
				c39.096,4.144,66.629,11.55,95.942,15.993c13.257,2.009,69.326,7.437,80.256,8.292c15.103,1.184,43.535,1.774,49.457,2.369
				c5.922,0.591,40.275,0.295,21.913,36.426c-15.181,29.873-17.77,28.728-27.838,38.5c-10.069,9.77-34.239,23.403-51.528,29.023
				c-22.806,7.401-31.69,2.659-32.873,1.479c-1.184-1.186,1.479,0.889-12.44,7.701c-13.917,6.808-50.34,22.8-64.252,31.981
				c-15.486,10.212-57.76,28.188-70.187,35.241c-10.953,6.219-15.989,9.181-26.057,11.848c-10.072,2.661-28.729,6.216-29.024-13.031
				c-0.295-19.254-2.82-25.21-7.107-50.938C19.868,201.76,22.465,184.975,22.83,178.361z"/>
		</g>
	</g>
</g>
<text transform="matrix(1 0 0 1 305.7939 87)" fill="#333333" font-family="Liberation Sans, Helvetica, Arial, sans-serif" font-size="14.1">Left lobe</text>
<text transform="matrix(1 0 0 1 53 76)" fill="#333333" font-family="Liberation Sans, Helvetica, Arial, sans-serif" font-size="14.1">Right lobe</text>
<text transform="matrix(1 0 0 1 213.127 28.333)"><tspan x="0" y="0" fill="#333333" font-family="Liberation Sans, Helvetica, Arial, sans-serif" font-size="14.1">Hepatic vein - takes</tspan><tspan x="0" y="16.92" fill="#333333" font-family="Liberation Sans, Helvetica, Arial, sans-serif" font-size="14.1">blood back to the heart</tspan></text>
<text transform="matrix(1 0 0 1 221.7939 276)"><tspan x="0" y="0" fill="#333333" font-family="Liberation Sans, Helvetica, Arial, sans-serif" font-size="14.1">Hepatic artery - takes</tspan><tspan x="0" y="16.92" fill="#333333" font-family="Liberation Sans, Helvetica, Arial, sans-serif" font-size="14.1">blood from the heart</tspan></text>
<text transform="matrix(1 0 0 1 222.7939 316)"><tspan x="0" y="0" fill="#333333" font-family="Liberation Sans, Helvetica, Arial, sans-serif" font-size="14.1">Portal vein - brings</tspan><tspan x="0" y="16.92" fill="#333333" font-family="Liberation Sans, Helvetica, Arial, sans-serif" font-size="14.1">blood from the bowel</tspan></text>
<text transform="matrix(1 0 0 1 14.0962 333.1113)"><tspan x="0" y="0" fill="#333333" font-family="Liberation Sans, Helvetica, Arial, sans-serif" font-size="14.1">Common </tspan><tspan x="0" y="16.92" fill="#333333" font-family="Liberation Sans, Helvetica, Arial, sans-serif" font-size="14.1">bile duct</tspan></text>
<line fill="none" stroke="#333333" x1="174.5" y1="310.5" x2="217.5" y2="310.5"/>
<g>
	<defs>
		<polygon id="SVGID_3_" points="336.228,-355.27 263.501,-356.096 279.203,-228.822 123.837,-228.171 136.234,-351.137 
			81.688,-350.311 80.862,-635 335.666,-633.834 		"/>
	</defs>
	<clipPath id="SVGID_4_">
		<use xlink:href="#SVGID_3_"  overflow="visible"/>
	</clipPath>
	<path clip-path="url(#SVGID_4_)" fill-rule="evenodd" clip-rule="evenodd" fill="#E3E3E3" stroke="#E3E3E3" d="M340.194-252.383
		c-1.073-1.73-1.717-4.329-3.213-6.063c-1.283-1.516-3.211-2.382-4.283-4.331c-1.07-1.299-1.712-2.813-2.779-4.112
		c0,0-6.425-8.229-10.708-10.392c-3.852-1.95-5.137-5.196-6.421-9.309c-3.213-9.962-8.087-52.61-7.708-62.571
		c0.645-16.889-7.063-33.557-9.203-37.89c-2.782-5.63-2.355-11.257-2.355-17.536c0-4.763,0-9.742-0.213-14.505
		c-0.214-3.032-0.643-6.064-0.43-9.093c0.643-6.929,1.692-13.653,2.142-20.57c0.856-13.205-2.571-36.805-14.987-46.115
		c-4.646-3.483-9.846-5.196-15.412-7.145c-3.854-1.299-6.852-2.814-11.133-4.546c-2.217-0.897-4.39-1.884-6.547-2.937l-2.861-1.526
		c-6.704-4.291-20.76-7.577-23.519-8.599c-3.43-1.27-3.177-3.176-2.668-4.447c0.232-0.583,0.492-1.835,0.778-3.178h-45.024
		c-1.981,4.283-4.976,8.568-8.943,10.86l-4.761,2.249c-5.119,2.814-10.115,5.448-15.361,7.578c-4.27,1.732-7.256,3.247-11.095,4.546
		c-5.548,1.949-10.73,3.661-15.361,7.145c-12.375,9.31-15.788,32.91-14.935,46.115c0.447,6.917,1.494,13.641,2.134,20.57
		c0.213,3.028-0.213,6.061-0.426,9.093c-0.214,4.763-0.214,9.742-0.214,14.505c0,6.279,0.427,11.906-2.347,17.536
		c-2.134,4.333-9.813,21.001-9.174,37.89c0.377,9.961-4.48,52.609-7.681,62.571c-1.28,4.112-2.56,7.358-6.4,9.309
		c-4.266,2.163-10.667,10.392-10.667,10.392c-1.067,1.299-1.707,2.813-2.773,4.112c-1.067,1.949-2.987,2.815-4.268,4.331
		c-1.494,1.733-2.133,4.332-3.2,6.063c-1.28,2.166-6.475,6.714-5.12,7.578c6.88,4.385,12.8-6.712,16.641-10.608l0.64,1.3
		c0.427,1.298,0.853,1.893,1.279,2.975c0.427,1.083,0.641,2.219,0.427,3.519c-0.64,3.683-1.227,6.497-2.506,9.959
		c-1.28,4.114-2.667,7.739-4.161,11.854c-0.853,2.164-3.84,7.308-0.587,9.148c2.977,1.683,4.748-2.274,5.387-3.79
		c1.066-2.598,1.973-4.709,3.04-7.308c1.066-2.814,2.502-5.441,3.947-8.174c1.173-2.218,2.987-1.081,2.987-1.081
		c0.853,3.464-0.64,7.576-1.28,11.041c-0.641,3.897-1.921,7.579-2.133,11.474c0,2.166-0.161,4.115,2.773,4.765
		c3.133,0.693,4.053-4.546,4.693-7.145c1.067-4.33,1.92-8.877,2.773-13.422c0.427-2.383,0.427-4.981,1.708-6.931
		c1.173-0.107,0.853,2.381,1.066,2.598c0.214,4.333,0,8.661,0,12.991c0,1.948-1.547,8.867,2.347,9.798
		c5.44,1.298,4.267-10.23,4.48-12.179c0.64-3.681,0.64-7.146,1.067-10.61c0.212-1.514,0.533-5.141,1.492-5.195
		c0.961-0.053,2.348,5.195,2.562,6.93c0.426,1.73,1.28,3.248,1.492,4.979c0.214,1.948,1.068,7.308,3.787,6.657
		c3.323-0.793,1.973-5.357,1.761-7.523c-0.853-6.277-1.708-13.641-0.853-20.136c0.64-5.844,1.919-12.395,0.212-18.455
		c-0.64-2.598-1.439-4.655-1.439-7.471c0-2.599,0.586-4.817,1.439-7.198c0,0,14.294-41.353,17.067-50.012
		c2.347-7.794,4.267-15.589,5.761-23.816c1.28-6.279,0.853-12.34,0.853-18.837c0-2.813,0.213-6.062,0.854-8.658
		c0.64-2.599,1.92-5.196,2.134-7.795l0.213,6.496c1.28,8.225,3.681,15.803,4.479,24.735c0.638,7.118-0.426,14.017-0.426,21.161
		c0,13.859-3.52,26.47-3.734,40.541l-1.119,6.333c-1.121,6.983-1.71,13.529-2.081,18.998c-0.641,8.444-0.96,16.401-1.813,24.628
		c-0.641,7.579-0.618,14.209-0.748,21.813c-0.48,28.091,5.227,58.51,7.573,69.985c1.067,4.763,2.134,9.959,3.841,14.722
		c0.854,2.814,2.134,5.412,2.773,8.228c0.855,3.463,0.641,7.145,1.066,10.824c0.641,3.466,1.709,6.713,2.35,10.177
		c2.133,10.607-1.281,21.001-2.242,31.88c-0.209,2.372-0.48,13.64-0.318,17.049c0,0,1.279,23.546,8.643,40.596
		c4.061,9.405,6.346,15.858,9.121,23.87c2.559,6.928,4.852,14.993,5.064,22.569c0.214,5.414-0.213,10.61,0.643,16.021
		c0.426,3.031-0.215,4.546-1.495,7.362l-2.773,2.598c-3.841,2.598-8.108,5.627-11.308,9.094c-1.279,1.514-2.346,3.465,0,4.545
		c0.641,0.434,1.494,0,2.348,0.217c0.427,0,0.852,0.648,1.279,0.648c0.854,0.219,1.279,0,2.134,0c1.067,0,1.28,0.652,2.56,0.867
		c1.494,0.648,3.414,0.217,4.908-0.215c0.213-0.217,0.64-0.652,0.853-0.867c2.347,1.73,6.188,2.814,8.321,0v-0.217
		c1.918,4.33,10.24,4.33,13.867,3.031c1.279-0.434,2.025-1.029,2.879-1.678c0.854-0.434,1.175-0.703,2.027-1.354
		c1.279-1.082,1.92-3.465,1.708-5.197c-0.214-1.514-1.067-2.813-1.067-4.328c0-1.732,0-3.682,0.213-5.414
		c0.426-5.627-1.44-9.742-1.44-15.372c0-1.948,0.587-4.763-0.266-6.494c-0.854-1.732-1.922-3.031-2.561-4.765
		c-1.281-3.03-1.066-6.711-1.066-9.742c0,0,0.641-27.496,1.493-39.403l0.854-9.093c0-0.866,0.214-1.732,0.214-2.382
		c1.279-7.146,1.493-14.073,0.854-21.218c-0.641-6.496-3.2-12.341-5.12-18.619c-2.134-6.063-3.841-12.774-2.99-19.486
		c0.856-6.277,3.362-14.127,3.788-20.621c0,0-0.054-15.483,0.64-22.247c0.801-7.793,1.084-15.294,2.401-23.22
		c2.079-12.503,3.413-24.627,3.841-37.186c0.214-5.413,0.426-10.825,0.426-16.237c0-3.681,0-22.518,0.639-27.063
		c0-0.866,0.533-2.652,2.561-2.599h0.346c2.033-0.054,2.567,1.732,2.567,2.599c0.642,4.545,0.642,23.382,0.642,27.063
		c0,5.412,0.211,10.824,0.426,16.237c0.427,12.559,1.768,24.683,3.854,37.186c1.32,7.926,1.605,15.427,2.408,23.22
		c0.696,6.764,0.643,22.247,0.643,22.247c0.427,6.494,2.942,14.344,3.8,20.621c0.856,6.712-0.857,13.423-2.998,19.486
		c-1.927,6.278-4.495,12.123-5.137,18.619c-0.643,7.145-0.43,14.072,0.855,21.218c0,0.649,0.215,1.516,0.215,2.382l0.854,9.093
		c0.856,11.907,1.499,39.403,1.499,39.403c0,3.031,0.214,6.712-1.07,9.742c-0.642,1.733-1.712,3.032-2.568,4.765
		c-0.857,1.731-0.268,4.546-0.268,6.494c0,5.63-1.873,9.745-1.444,15.372c0.214,1.731,0.214,3.681,0.214,5.414
		c0,1.516-0.857,2.814-1.072,4.328c-0.211,1.732,0.43,4.115,1.713,5.197c0.857,0.65,1.178,0.92,2.035,1.354
		c0.854,0.648,1.604,1.244,2.891,1.678c3.639,1.299,11.987,1.299,13.914-3.031v0.217c2.141,2.814,5.994,1.73,8.349,0
		c0.214,0.215,0.643,0.65,0.856,0.867c1.499,0.432,3.426,0.863,4.924,0.215c1.284-0.215,1.499-0.867,2.569-0.867
		c0.856,0,1.284,0.219,2.141,0c0.429,0,0.855-0.648,1.284-0.648c0.856-0.217,1.713,0.217,2.355-0.217
		c2.354-1.08,1.284-3.031,0-4.545c-3.211-3.467-7.493-6.496-11.347-9.094l-2.783-2.598c-1.284-2.816-1.927-4.331-1.498-7.362
		c0.856-5.411,0.429-10.607,0.643-16.021c0.214-7.576,2.515-15.642,5.084-22.569c2.783-8.012,5.076-14.465,9.151-23.87
		c7.387-17.05,8.67-40.596,8.67-40.596c0.162-3.409-0.111-14.677-0.319-17.049c-0.964-10.879-4.391-21.272-2.249-31.88
		c0.643-3.464,1.713-6.711,2.354-10.177c0.428-3.68,0.214-7.361,1.07-10.824c0.643-2.815,1.927-5.413,2.783-8.228
		c1.712-4.763,2.783-9.959,3.854-14.722c2.354-11.476,8.081-41.895,7.6-69.985c-0.129-7.604-0.107-14.234-0.75-21.813
		c-0.855-8.227-1.175-16.184-1.818-24.628c-0.373-5.469-0.963-12.015-2.087-18.998l-1.125-6.333
		c-0.215-14.071-3.746-26.682-3.746-40.541c0-7.145-1.067-14.043-0.428-21.161c0.803-8.933,3.211-16.511,4.495-24.735l0.214-6.496
		c0.214,2.599,1.499,5.196,2.141,7.795c0.643,2.597,0.856,5.846,0.856,8.658c0,6.497-0.429,12.558,0.856,18.837
		c1.498,8.228,3.426,16.022,5.779,23.816c2.784,8.659,17.126,50.012,17.126,50.012c0.858,2.381,1.447,4.6,1.447,7.198
		c0,2.815-0.803,4.873-1.447,7.471c-1.712,6.061-0.428,12.611,0.214,18.455c0.857,6.495,0,13.858-0.855,20.136
		c-0.213,2.166-1.567,6.73,1.767,7.523c2.729,0.65,3.585-4.709,3.801-6.657c0.212-1.73,1.07-3.248,1.499-4.979
		c0.213-1.734,1.605-6.982,2.568-6.93c0.964,0.055,1.287,3.682,1.499,5.195c0.429,3.465,0.429,6.93,1.069,10.61
		c0.214,1.948-0.964,13.477,4.497,12.179c3.904-0.931,2.354-7.85,2.354-9.798c0-4.33-0.214-8.658,0-12.991
		c0.213-0.217-0.104-2.705,1.068-2.598c1.287,1.949,1.287,4.548,1.717,6.931c0.854,4.545,1.711,9.092,2.78,13.422
		c0.641,2.599,1.566,7.838,4.711,7.145c2.942-0.649,2.784-2.599,2.784-4.765c-0.218-3.895-1.5-7.576-2.142-11.474
		c-0.643-3.465-2.142-7.577-1.284-11.041c0,0,1.818-1.137,2.996,1.081c1.45,2.732,2.89,5.359,3.96,8.174
		c1.072,2.599,1.979,4.71,3.051,7.308c0.644,1.516,2.421,5.473,5.407,3.79c3.265-1.841,0.266-6.984-0.589-9.148
		c-1.5-4.115-2.891-7.74-4.175-11.854c-1.287-3.462-1.875-6.276-2.517-9.959c-0.213-1.3,0-2.436,0.429-3.519
		c0.429-1.082,0.856-1.677,1.284-2.975l0.643-1.3c3.852,3.896,9.796,14.993,16.699,10.608
		C346.692-245.669,341.479-250.217,340.194-252.383z"/>
	<path clip-path="url(#SVGID_4_)" fill="#F9ECE6" stroke="#B1877B" d="M172.14-557.546"/>
	<path clip-path="url(#SVGID_4_)" fill="#E3E3E3" stroke="#808285" stroke-linecap="round" stroke-linejoin="round" d="
		M219.146-280.803c-1.584,0.955-5.308,6.097-4.44,11.739c0.317,2.063-0.159,3.966,0.317,4.917c0.476,0.952,0.793,6.347,0.318,7.612
		c-0.477,1.271,0.316,4.919-0.318,6.029c-0.635,1.111-0.953,4.122-1.745,4.44c-0.792,0.317-1.585,1.903-1.585,2.539
		c0,0.635-1.428,1.744-2.222,1.744c-0.793,0-2.696,1.744-3.49,1.428c-0.793-0.316-1.903,0-2.378,0.476
		c-0.478,0.476-3.46,0.237-4.094-0.079c-0.636-0.158-2.665-0.24-3.3,0.079c-0.634,0.317-3.17,0.476-3.646,0
		c-0.478-0.476-1.588-0.792-2.38-0.476c-0.793,0.316-2.697-1.428-3.489-1.428c-0.793,0-2.222-1.109-2.222-1.744
		c0-0.636-0.792-2.222-1.585-2.539c-0.794-0.318-1.111-3.329-1.745-4.44c-0.634-1.11,0.158-4.758-0.317-6.029
		c-0.477-1.266-0.159-6.66,0.317-7.612c0.476-0.951,0-2.854,0.317-4.917c0.867-5.643-2.854-10.784-4.441-11.739"/>
</g>
<line fill="none" stroke="#333333" x1="314.5" y1="93" x2="314.5" y2="135"/>
<line fill="none" stroke="#333333" x1="218.5" y1="51" x2="218.5" y2="83"/>
<line fill="none" stroke="#333333" x1="141" y1="329.5" x2="80" y2="329.5"/>
<line fill="none" stroke="#333333" x1="217" y1="271.5" x2="179" y2="271.5"/>
<line fill="none" stroke="#333333" x1="102.5" y1="114" x2="102.5" y2="83"/>
</svg>
