<?xml version="1.0" encoding="UTF-8" standalone="no"?>
<!-- Created with Inkscape (http://www.inkscape.org/) -->

<svg
   xmlns:dc="http://purl.org/dc/elements/1.1/"
   xmlns:cc="http://creativecommons.org/ns#"
   xmlns:rdf="http://www.w3.org/1999/02/22-rdf-syntax-ns#"
   xmlns:svg="http://www.w3.org/2000/svg"
   xmlns="http://www.w3.org/2000/svg"
   xmlns:sodipodi="http://sodipodi.sourceforge.net/DTD/sodipodi-0.dtd"
   xmlns:inkscape="http://www.inkscape.org/namespaces/inkscape"
   width="618.41278"
   height="677.65802"
   id="svg2"
   version="1.1"
   inkscape:version="0.48pre1 r9509"
   sodipodi:docname="Uterine blood supply.svg">
  <defs
     id="defs4" />
  <sodipodi:namedview
     id="base"
     pagecolor="#ffffff"
     bordercolor="#666666"
     borderopacity="1.0"
     inkscape:pageopacity="0.0"
     inkscape:pageshadow="2"
     inkscape:zoom="0.5"
     inkscape:cx="210.34636"
     inkscape:cy="363.26645"
     inkscape:document-units="px"
     inkscape:current-layer="layer1"
     showgrid="false"
     inkscape:window-width="1195"
     inkscape:window-height="592"
     inkscape:window-x="21"
     inkscape:window-y="75"
     inkscape:window-maximized="0"
     fit-margin-top="10"
     fit-margin-left="10"
     fit-margin-bottom="10"
     fit-margin-right="10" />
  <metadata
     id="metadata7">
    <rdf:RDF>
      <cc:Work
         rdf:about="">
        <dc:format>image/svg+xml</dc:format>
        <dc:type
           rdf:resource="http://purl.org/dc/dcmitype/StillImage" />
        <dc:title />
      </cc:Work>
    </rdf:RDF>
  </metadata>
  <g
     inkscape:label="Layer 1"
     inkscape:groupmode="layer"
     id="layer1"
     transform="translate(188,-528.03406)">
    <path
       style="opacity:0.5;fill:#cdaf1f;fill-opacity:1;stroke:none"
       d="m 144.35427,1046.9222 97.63628,-52.68144 -5.61936,-70.24192 -9.83387,-50.57418 4.91694,-56.89595 3.5121,-65.32502 -107.47015,-52.68143 -10.53629,61.8129 -7.72659,96.23144 4.21451,87.80242 z"
       id="path3028"
       inkscape:connector-curvature="0" />
    <path
       style="opacity:0.5;fill:#df763b;fill-opacity:1;stroke:none"
       d="m -48.038847,614.83403 178.159267,83.44315 -11.92045,63.57573 -7.94697,99.33708 4.65522,84.60694 31.58818,100.82467 -174.667831,92.7122 -59.602248,-135.0984 -3.973484,-111.25755 3.973484,-103.31056 15.893933,-75.49618 z"
       id="path2996"
       inkscape:connector-curvature="0"
       sodipodi:nodetypes="cccccccccccc" />
    <path
       style="fill:none;stroke:#ff0e0e;stroke-width:15.8939333;stroke-linecap:butt;stroke-linejoin:miter;stroke-miterlimit:4;stroke-opacity:1;stroke-dasharray:none"
       d="m -170.05303,551.2583 c 0,0 29.71835,23.90678 39.73483,39.73483 10.52921,16.63828 11.74772,37.69087 19.86741,55.62876 5.6234,12.42306 19.102088,22.14633 19.867421,35.76135 0.966351,17.19128 -15.355091,31.06513 -19.867421,47.6818 -7.70688,28.38072 -9.40575,58.11581 -11.92044,87.41663 -3.17319,36.97358 -4.02439,74.14806 -3.97349,111.25753 0.0473,34.4623 2.65127,68.87362 3.97349,103.3106 2.0759,54.0662 43.520643,145.8194 47.681794,143.0454"
       id="path2998"
       inkscape:connector-curvature="0"
       sodipodi:nodetypes="csssssssc" />
    <path
       style="fill:none;stroke:#ff0e0e;stroke-width:7.94696665;stroke-linecap:butt;stroke-linejoin:miter;stroke-miterlimit:4;stroke-opacity:1;stroke-dasharray:none"
       d="m -94.556852,686.35673 39.734832,11.92045 35.761349,11.92045"
       id="path3000"
       inkscape:connector-curvature="0" />
    <path
       style="fill:none;stroke:#ff0e0e;stroke-width:7.94696665;stroke-linecap:butt;stroke-linejoin:miter;stroke-miterlimit:4;stroke-opacity:1;stroke-dasharray:none"
       d="m -118.39775,809.53471 c 0,0 23.358358,9.90772 35.761347,11.92045 14.381308,2.33374 43.708316,0 43.708316,0"
       id="path3002"
       inkscape:connector-curvature="0"
       sodipodi:nodetypes="csc" />
    <path
       style="fill:none;stroke:#ff0e0e;stroke-width:7.94696665;stroke-linecap:butt;stroke-linejoin:miter;stroke-miterlimit:4;stroke-opacity:1;stroke-dasharray:none"
       d="m -126.34472,936.68617 c 0,0 31.801616,-0.66051 47.681801,0 15.935257,0.66282 40.657594,3.97348 40.657594,3.97348"
       id="path3004"
       inkscape:connector-curvature="0"
       sodipodi:nodetypes="csc" />
    <path
       style="fill:none;stroke:#ff0e0e;stroke-width:7.94696665;stroke-linecap:butt;stroke-linejoin:miter;stroke-miterlimit:4;stroke-opacity:1;stroke-dasharray:none"
       d="m -118.39775,1059.8641 c 0,0 34.380284,-8.2005 51.65528,-11.9204 13.204561,-2.8434 39.734833,-7.947 39.734833,-7.947"
       id="path3006"
       inkscape:connector-curvature="0"
       sodipodi:nodetypes="csc" />
    <path
       style="fill:none;stroke:#ff0e0e;stroke-width:11.92044926;stroke-linecap:butt;stroke-linejoin:miter;stroke-miterlimit:4;stroke-opacity:1;stroke-dasharray:none"
       d="m -3.1667381,1123.4399 c 0,0 -17.7164509,-54.9323 -19.8674159,-83.4432 -1.199833,-15.9038 6.448685,-31.926 3.973483,-47.68177 -2.672207,-17.0098 -15.845139,-30.93976 -19.867416,-47.68179 -4.034158,-16.79151 -7.941165,-34.84797 -3.973483,-51.65529 1.774398,-7.51648 10.714338,-12.23912 11.920449,-19.86741 2.759664,-17.45416 -9.920873,-34.09781 -11.920449,-51.65528 -1.648638,-14.47588 -2.333746,-29.32701 0,-43.70832 2.012728,-12.40299 8.279229,-23.73524 11.920449,-35.76135 4.376196,-14.45358 9.172866,-28.85881 11.92045,-43.70831 4.843636,-26.17767 7.946966,-79.46967 7.946966,-79.46967"
       id="path3008"
       inkscape:connector-curvature="0"
       sodipodi:nodetypes="csssssssssc" />
    <path
       style="fill:none;stroke:#ff0e0e;stroke-width:5.96022463;stroke-linecap:butt;stroke-linejoin:miter;stroke-miterlimit:4;stroke-opacity:1;stroke-dasharray:none"
       d="m 50.475285,781.72032 c 0,0 22.439174,-3.87462 33.774608,-3.97348 6.655266,-0.058 13.720636,-0.56531 19.867417,1.98674 6.09457,2.5304 8.8141,13.77209 15.30109,12.56165 9.12141,-1.70204 14.19608,-14.98003 11.95879,-23.98513 -0.83785,-3.3723 -4.05013,-7.63517 -7.04184,-5.86769 -2.26414,1.33764 -3.21034,10.83323 -1.40487,15.80445 1.92158,5.29097 6.31307,11.83292 11.94115,11.94111 4.30699,0.0827 7.32234,-5.05331 9.48264,-8.78024 1.56657,-2.70261 3.55525,-5.27615 3.84566,-8.38643 1.14371,-12.24938 -3.97374,-7.52395 -6.30412,-3.20347 -1.79227,3.32283 -2.73793,6.06143 -2.88759,9.83386 -0.17439,4.39562 -0.6122,9.2759 2.88759,11.94111 2.74084,2.08727 6.87218,2.70137 10.18508,1.75608 4.06681,-1.16042 7.29177,-4.81165 9.48266,-8.42903 1.25028,-2.06434 0.1318,-5.23908 1.75604,-7.0242 1.218,-1.33863 -3.24693,-6.73633 -5.1005,-6.71936 -5.64024,0.0516 -7.64439,23.43334 -3.42544,27.36264 4.89329,4.55734 25.12089,-12.49744 20.46707,-24.8578 -0.74251,-1.97208 4.37492,-0.80642 6.32177,0 3.3651,1.39386 7.72661,7.7266 7.72661,7.7266"
       id="path3010"
       inkscape:connector-curvature="0"
       sodipodi:nodetypes="csssssssssssssssssssc" />
    <path
       style="fill:none;stroke:#ff0e0e;stroke-width:3.97348332px;stroke-linecap:round;stroke-linejoin:miter;stroke-opacity:1"
       d="m 74.112345,780.0029 c 0,0 -0.516155,18.5973 4.214515,25.98952 7.0008,10.93956 32.31129,21.77497 32.31129,21.77497"
       id="path3012"
       inkscape:connector-curvature="0"
       sodipodi:nodetypes="csc" />
    <path
       style="fill:none;stroke:#ff0e0e;stroke-width:3.97348332px;stroke-linecap:round;stroke-linejoin:miter;stroke-opacity:1"
       d="m 84.648632,810.90933 -9.833855,25.28709"
       id="path3014"
       inkscape:connector-curvature="0" />
    <path
       style="fill:none;stroke:#ff0e0e;stroke-width:3.97348332px;stroke-linecap:round;stroke-linejoin:miter;stroke-opacity:1"
       d="m 77.624427,778.59808 c 0,0 -0.324236,-11.74351 2.107258,-16.8581 3.199528,-6.73032 15.453234,-16.15563 15.453234,-16.15563 l 1.404864,-16.85805"
       id="path3016"
       inkscape:connector-curvature="0"
       sodipodi:nodetypes="cscc" />
    <path
       style="fill:none;stroke:#ff0e0e;stroke-width:3.97348332px;stroke-linecap:round;stroke-linejoin:miter;stroke-opacity:1"
       d="m 95.184919,746.98918 c 0,0 11.370201,3.50517 16.858061,2.10726 8.94149,-2.27764 22.47742,-16.15563 22.47742,-16.15563"
       id="path3018"
       inkscape:connector-curvature="0"
       sodipodi:nodetypes="csc" />
    <path
       style="fill:none;stroke:#ff0e0e;stroke-width:3.97348332px;stroke-linecap:round;stroke-linejoin:miter;stroke-opacity:1"
       d="m 172.59224,791.67501 c 0,0 3.06391,13.15227 6.32177,18.96532 2.84337,5.07346 11.23871,13.34597 11.23871,13.34597"
       id="path3020"
       inkscape:connector-curvature="0"
       sodipodi:nodetypes="csc" />
    <path
       style="fill:none;stroke:#ff0e0e;stroke-width:3.97348332;stroke-linecap:round;stroke-linejoin:miter;stroke-miterlimit:0;stroke-opacity:1;stroke-dasharray:none;marker-mid:none;marker-end:none"
       d="m 175.57966,771.69439 c 0,0 4.3429,-14.43109 9.83387,-18.96532 5.08411,-4.19822 18.96532,-5.61938 18.96532,-5.61938"
       id="path3022"
       inkscape:connector-curvature="0"
       sodipodi:nodetypes="csc" />
    <path
       style="fill:none;stroke:#ff0e0e;stroke-width:3.97348332px;stroke-linecap:round;stroke-linejoin:miter;stroke-opacity:1"
       d="M 88.160754,777.19321 90.268011,765.9545"
       id="path3024"
       inkscape:connector-curvature="0" />
    <path
       style="fill:none;stroke:#ff0e0e;stroke-width:3.97348332px;stroke-linecap:round;stroke-linejoin:miter;stroke-opacity:1"
       d="m 100.8043,777.89565 3.51208,-9.8339"
       id="path3026"
       inkscape:connector-curvature="0" />
    <path
       style="fill:none;stroke:#ff0f0f;stroke-width:7.94696665;stroke-linecap:butt;stroke-linejoin:miter;stroke-miterlimit:4;stroke-opacity:1;stroke-dasharray:none"
       d="m -42.840458,780.70534 c 0,0 23.602346,-8.35615 35.8233749,-10.88751 9.1148685,-1.88797 18.5487201,-4.59735 27.7455621,-3.1609 11.544753,1.80316 31.960076,14.39958 31.960076,14.39958"
       id="path3798"
       inkscape:connector-curvature="0"
       sodipodi:nodetypes="csss" />
    <path
       style="fill:none;stroke:#ff0e0e;stroke-width:3.97348332;stroke-linecap:round;stroke-linejoin:miter;stroke-miterlimit:0;stroke-opacity:1;stroke-dasharray:none;marker-mid:none;marker-end:none"
       d="m 223.82222,773.69627 c 0,0 -11.31642,9.9527 -18.37448,10.89799 -6.53509,0.87528 -19.06869,-5.25799 -19.06869,-5.25799"
       id="path3022-8"
       inkscape:connector-curvature="0"
       sodipodi:nodetypes="csc" />
    <path
       style="fill:none;stroke:#ff0e0e;stroke-width:5.96022463;stroke-linecap:butt;stroke-linejoin:miter;stroke-miterlimit:4;stroke-opacity:1;stroke-dasharray:none"
       d="m 46.24289,872.04535 c 0,0 22.179626,5.15674 33.490702,5.90638 6.640922,0.44006 13.665524,1.35226 19.948714,-0.84262 6.229824,-2.17627 9.590394,-13.24326 15.997164,-11.66229 9.00864,2.223 13.31244,15.77048 10.56176,24.63226 -1.03013,3.31861 -4.48189,7.39 -7.36716,5.45364 -2.18359,-1.46542 -2.58296,-10.99971 -0.49502,-15.85904 2.22225,-5.17189 6.98213,-11.45087 12.60715,-11.2357 4.30463,0.1649 7.02007,5.46545 8.9628,9.31027 1.40879,2.78811 3.24641,5.4716 3.35774,8.59345 0.43842,12.29483 -4.39923,7.28331 -6.47767,2.83615 -1.59851,-3.42025 -2.38535,-6.20864 -2.31813,-9.98345 0.0783,-4.39837 -0.0785,-9.29573 3.56852,-11.75559 2.85617,-1.92643 7.01596,-2.30228 10.26911,-1.16833 3.99346,1.39203 7.00344,5.22243 8.98299,8.95965 1.12968,2.13273 -0.16928,5.23801 1.3498,7.11345 1.13911,1.40638 -3.62841,6.53876 -5.47794,6.41539 -5.62797,-0.3755 -6.28616,-23.83363 -1.84854,-27.51419 5.14692,-4.26883 24.3618,13.91935 19.00588,25.99207 -0.85453,1.92618 4.3214,1.05631 6.31135,0.36317 3.43958,-1.19832 8.15754,-7.27016 8.15754,-7.27016"
       id="path3010-3"
       inkscape:connector-curvature="0"
       sodipodi:nodetypes="csssssssssssssssssssc" />
    <path
       style="fill:none;stroke:#ff0e0e;stroke-width:3.97348332px;stroke-linecap:round;stroke-linejoin:miter;stroke-opacity:1"
       d="m 69.742308,875.11725 c 0,0 0.552632,-18.59626 5.699962,-25.70463 7.617445,-10.51952 24.56805,-0.26455 24.56805,-0.26455"
       id="path3012-5"
       inkscape:connector-curvature="0"
       sodipodi:nodetypes="csc" />
    <path
       style="fill:none;stroke:#ff0e0e;stroke-width:3.97348332px;stroke-linecap:round;stroke-linejoin:miter;stroke-opacity:1"
       d="m 82.035947,844.86684 9.515142,-5.69428"
       id="path3014-5"
       inkscape:connector-curvature="0"
       sodipodi:nodetypes="cc" />
    <path
       style="fill:none;stroke:#ff0e0e;stroke-width:3.97348332px;stroke-linecap:round;stroke-linejoin:miter;stroke-opacity:1"
       d="m 73.167928,876.72142 c 0,0 -0.99806,11.70552 1.13574,16.95128 2.807783,6.90297 14.500035,17.01636 14.500035,17.01636 l 0.434501,16.91091"
       id="path3016-4"
       inkscape:connector-curvature="0"
       sodipodi:nodetypes="cscc" />
    <path
       style="fill:none;stroke:#ff0e0e;stroke-width:3.97348332px;stroke-linecap:round;stroke-linejoin:miter;stroke-opacity:1"
       d="m 88.884365,909.28654 c 0,0 11.552705,-2.84645 16.951235,-1.13574 8.79594,2.78736 21.51264,17.41971 21.51264,17.41971"
       id="path3018-9"
       inkscape:connector-curvature="0"
       sodipodi:nodetypes="csc" />
    <path
       style="fill:none;stroke:#ff0e0e;stroke-width:3.97348332px;stroke-linecap:round;stroke-linejoin:miter;stroke-opacity:1"
       d="m 168.72995,869.11943 c 0,0 3.81411,-12.95463 7.4004,-18.57099 3.13,-4.90184 11.98653,-12.67859 11.98653,-12.67859"
       id="path3020-9"
       inkscape:connector-curvature="0"
       sodipodi:nodetypes="csc" />
    <path
       style="fill:none;stroke:#ff0e0e;stroke-width:3.97348332;stroke-linecap:round;stroke-linejoin:miter;stroke-miterlimit:0;stroke-opacity:1;stroke-dasharray:none;marker-mid:none;marker-end:none"
       d="m 170.56509,889.23865 c 0,0 3.50705,14.65663 8.72859,19.49871 4.83465,4.48324 18.61135,6.69914 18.61135,6.69914"
       id="path3022-1"
       inkscape:connector-curvature="0"
       sodipodi:nodetypes="csc" />
    <path
       style="fill:none;stroke:#ff0e0e;stroke-width:3.97348332px;stroke-linecap:round;stroke-linejoin:miter;stroke-opacity:1"
       d="m 83.606189,878.72898 1.458427,11.3412"
       id="path3024-5"
       inkscape:connector-curvature="0"
       sodipodi:nodetypes="cc" />
    <path
       style="fill:none;stroke:#ff0e0e;stroke-width:3.97348332px;stroke-linecap:round;stroke-linejoin:miter;stroke-opacity:1"
       d="m 96.269203,878.75378 2.941609,10.01933"
       id="path3026-2"
       inkscape:connector-curvature="0"
       sodipodi:nodetypes="cc" />
    <path
       style="fill:none;stroke:#ff0f0f;stroke-width:7.94696665;stroke-linecap:butt;stroke-linejoin:miter;stroke-miterlimit:4;stroke-opacity:1;stroke-dasharray:none"
       d="m -32.07661,872.667 c 0,0 8.182991,4.73083 20.2385,7.9598 8.9913963,2.40825 18.2541419,5.6549 27.518278,4.74891 11.629233,-1.13725 32.734191,-12.54056 32.734191,-12.54056"
       id="path3798-9"
       inkscape:connector-curvature="0"
       sodipodi:nodetypes="csss" />
    <path
       style="fill:none;stroke:#ff0e0e;stroke-width:3.97348332;stroke-linecap:round;stroke-linejoin:miter;stroke-miterlimit:0;stroke-opacity:1;stroke-dasharray:none;marker-mid:none;marker-end:none"
       d="m 218.84301,890.0103 c 0,0 -10.72623,-10.58612 -17.71836,-11.93511 -6.47405,-1.24911 -19.33916,4.15431 -19.33916,4.15431"
       id="path3022-8-3"
       inkscape:connector-curvature="0"
       sodipodi:nodetypes="csc" />
    <path
       style="fill:none;stroke:#ff0e0e;stroke-width:5.96022463;stroke-linecap:butt;stroke-linejoin:miter;stroke-miterlimit:4;stroke-opacity:1;stroke-dasharray:none"
       d="m 56.628304,998.44284 c 0,0 20.55304,-9.8031 31.438676,-12.96619 6.391149,-1.85705 13.05555,-4.25767 19.66362,-3.46448 6.55199,0.78651 12.21254,10.87264 18.12981,7.95165 8.32034,-4.10719 9.61196,-18.26304 5.02097,-26.32659 -1.71929,-3.01965 -5.96543,-6.25406 -8.36708,-3.74282 -1.81763,1.90048 -0.15854,11.29781 2.92496,15.59481 3.28186,4.57344 9.27999,9.6827 14.72733,8.26361 4.1686,-1.08619 5.68139,-6.84647 6.75238,-11.01898 0.77665,-3.02573 1.99459,-6.04149 1.43237,-9.1143 -2.21426,-12.10172 -5.86177,-6.1676 -6.93586,-1.37769 -0.82606,3.6839 -0.99522,6.57624 -0.11833,10.24837 1.02175,4.27877 1.92101,9.09543 6.01167,10.71394 3.20342,1.26755 7.34679,0.74062 10.28023,-1.06604 3.60095,-2.21776 5.71736,-6.60556 6.84744,-10.68088 0.64492,-2.32568 -1.29107,-5.07923 -0.21055,-7.23731 0.81024,-1.61836 -4.94893,-5.60614 -6.72873,-5.08816 -5.41573,1.57628 -1.01692,24.62769 4.10803,27.26851 5.9441,3.06291 20.80095,-18.82994 12.97551,-29.46942 -1.24853,-1.69751 3.9934,-1.9604 6.08581,-1.71114 3.61675,0.43108 9.52942,5.34707 9.52942,5.34707"
       id="path3010-3-8"
       inkscape:connector-curvature="0"
       sodipodi:nodetypes="csssssssssssssssssssc" />
    <path
       style="fill:none;stroke:#ff0e0e;stroke-width:3.97348332px;stroke-linecap:round;stroke-linejoin:miter;stroke-opacity:1"
       d="m 78.918353,990.39221 c 0,0 4.536446,18.04299 11.091223,23.87889 9.700306,8.6366 24.050814,-5.0217 24.050814,-5.0217"
       id="path3012-5-4"
       inkscape:connector-curvature="0"
       sodipodi:nodetypes="csc" />
    <path
       style="fill:none;stroke:#ff0e0e;stroke-width:3.97348332px;stroke-linecap:round;stroke-linejoin:miter;stroke-opacity:1"
       d="m 97.426162,1017.2936 10.516578,3.5162"
       id="path3014-5-8"
       inkscape:connector-curvature="0"
       sodipodi:nodetypes="cc" />
    <path
       style="fill:none;stroke:#ff0e0e;stroke-width:3.97348332px;stroke-linecap:round;stroke-linejoin:miter;stroke-opacity:1"
       d="m 81.919167,988.08929 c 0,0 -3.490507,-11.21746 -2.53397,-16.79925 1.258561,-7.3451 10.504022,-19.73506 10.504022,-19.73506 l -3.210177,-16.60912"
       id="path3016-4-7"
       inkscape:connector-curvature="0"
       sodipodi:nodetypes="cscc" />
    <path
       style="fill:none;stroke:#ff0e0e;stroke-width:3.97348332px;stroke-linecap:round;stroke-linejoin:miter;stroke-opacity:1"
       d="m 90.269402,952.9074 c 0,0 11.894498,0.29721 16.799208,-2.53397 7.99135,-4.61266 10.24191,-8.99263 10.24191,-8.99263"
       id="path3018-9-6"
       inkscape:connector-curvature="0"
       sodipodi:nodetypes="csc" />
    <path
       style="fill:none;stroke:#ff0e0e;stroke-width:3.97348332px;stroke-linecap:round;stroke-linejoin:miter;stroke-opacity:1"
       d="m 176.88186,974.97541 c 0,0 6.50919,11.83216 11.21874,16.5465 4.11038,4.11462 12.67527,-1.43256 12.67527,-1.43256"
       id="path3020-9-9"
       inkscape:connector-curvature="0"
       sodipodi:nodetypes="csc" />
    <path
       style="fill:none;stroke:#ff0e0e;stroke-width:3.97348332;stroke-linecap:round;stroke-linejoin:miter;stroke-miterlimit:0;stroke-opacity:1;stroke-dasharray:none;marker-mid:none;marker-end:none"
       d="m 174.35008,954.93193 c 0,0 0.27509,-15.06785 4.33395,-20.919 3.75812,-5.41757 22.35599,-0.35749 22.35599,-0.35749"
       id="path3022-1-9"
       inkscape:connector-curvature="0"
       sodipodi:nodetypes="csc" />
    <path
       style="fill:none;stroke:#ff0e0e;stroke-width:3.97348332px;stroke-linecap:round;stroke-linejoin:miter;stroke-opacity:1"
       d="M 91.682015,983.88527 90.668936,972.49564"
       id="path3024-5-5"
       inkscape:connector-curvature="0"
       sodipodi:nodetypes="cc" />
    <path
       style="fill:none;stroke:#ff0e0e;stroke-width:3.97348332px;stroke-linecap:round;stroke-linejoin:miter;stroke-opacity:1"
       d="m 104.0438,981.13951 0.71952,-10.41744"
       id="path3026-2-7"
       inkscape:connector-curvature="0"
       sodipodi:nodetypes="cc" />
    <path
       style="fill:none;stroke:#ff0f0f;stroke-width:7.94696665;stroke-linecap:butt;stroke-linejoin:miter;stroke-miterlimit:4;stroke-opacity:1;stroke-dasharray:none"
       d="m -19.994598,1014.6682 c 0,0 6.975012,-6.379 18.0548318,-12.1235 8.2636928,-4.28436 16.6122192,-9.44592 25.8545812,-10.55213 11.601896,-1.3887 34.664469,5.21221 34.664469,5.21221"
       id="path3798-9-5"
       inkscape:connector-curvature="0"
       sodipodi:nodetypes="csss" />
    <path
       style="fill:none;stroke:#ff0e0e;stroke-width:3.97348332;stroke-linecap:round;stroke-linejoin:miter;stroke-miterlimit:0;stroke-opacity:1;stroke-dasharray:none;marker-mid:none;marker-end:none"
       d="m 221.33398,943.8024 c 0,0 -8.20041,12.64402 -14.73922,15.46424 -6.05429,2.61133 -19.78007,0.0989 -19.78007,0.0989"
       id="path3022-8-3-1"
       inkscape:connector-curvature="0"
       sodipodi:nodetypes="csc" />
    <text
       xml:space="preserve"
       style="font-size:31.78786659px;font-style:normal;font-variant:normal;font-weight:normal;font-stretch:normal;text-indent:0;text-align:start;text-decoration:none;line-height:125%;letter-spacing:0;word-spacing:0;text-transform:none;direction:ltr;block-progression:tb;writing-mode:lr-tb;text-anchor:start;baseline-shift:baseline;color:#000000;fill:#000000;fill-opacity:1;fill-rule:nonzero;stroke:none;stroke-width:1px;marker:none;visibility:visible;display:inline;overflow:visible;enable-background:accumulate;font-family:Arial;-inkscape-font-specification:Arial"
       x="-114.42427"
       y="573.91992"
       id="text4718"
       sodipodi:linespacing="125%"><tspan
         sodipodi:role="line"
         id="tspan4720"
         x="-114.42427"
         y="573.91992">Ovarian artery</tspan></text>
    <text
       xml:space="preserve"
       style="font-size:31.78786659px;font-style:normal;font-variant:normal;font-weight:normal;font-stretch:normal;text-indent:0;text-align:start;text-decoration:none;line-height:125%;letter-spacing:0;word-spacing:0;text-transform:none;direction:ltr;block-progression:tb;writing-mode:lr-tb;text-anchor:start;baseline-shift:baseline;color:#000000;fill:#000000;fill-opacity:1;fill-rule:nonzero;stroke:none;stroke-width:1px;marker:none;visibility:visible;display:inline;overflow:visible;enable-background:accumulate;font-family:Arial;-inkscape-font-specification:Arial"
       x="68.355957"
       y="634.70148"
       id="text4722"
       sodipodi:linespacing="125%"><tspan
         sodipodi:role="line"
         id="tspan4724"
         x="68.355957"
         y="634.70148">Arcuate artery</tspan></text>
    <text
       xml:space="preserve"
       style="font-size:31.78786659000000000px;font-style:normal;font-variant:normal;font-weight:normal;font-stretch:normal;text-indent:0;text-align:start;text-decoration:none;line-height:125%;letter-spacing:0;word-spacing:0;text-transform:none;direction:ltr;block-progression:tb;writing-mode:lr-tb;text-anchor:start;baseline-shift:baseline;color:#000000;fill:#2b0000;fill-opacity:1;fill-rule:nonzero;stroke:none;stroke-width:1px;marker:none;visibility:visible;display:inline;overflow:visible;enable-background:accumulate;font-family:Arial;-inkscape-font-specification:Arial"
       x="92.613327"
       y="1138.0571"
       id="text4726"
       sodipodi:linespacing="125%"><tspan
         sodipodi:role="line"
         id="tspan4728"
         x="92.613327"
         y="1138.0571">Myometrium</tspan></text>
    <text
       xml:space="preserve"
       style="font-size:31.78786659px;font-style:normal;font-variant:normal;font-weight:normal;font-stretch:normal;text-indent:0;text-align:start;text-decoration:none;line-height:125%;letter-spacing:0;word-spacing:0;text-transform:none;direction:ltr;block-progression:tb;writing-mode:lr-tb;text-anchor:start;baseline-shift:baseline;color:#000000;fill:#000000;fill-opacity:1;fill-rule:nonzero;stroke:none;stroke-width:1px;marker:none;visibility:visible;display:inline;overflow:visible;enable-background:accumulate;font-family:Arial;-inkscape-font-specification:Arial"
       x="201.46765"
       y="700.26392"
       id="text4730"
       sodipodi:linespacing="125%"><tspan
         sodipodi:role="line"
         id="tspan4732"
         x="201.46765"
         y="700.26392">Radial artery</tspan></text>
    <text
       xml:space="preserve"
       style="font-size:31.78786659px;font-style:normal;font-variant:normal;font-weight:normal;font-stretch:normal;text-indent:0;text-align:start;text-decoration:none;line-height:125%;letter-spacing:0;word-spacing:0;text-transform:none;direction:ltr;block-progression:tb;writing-mode:lr-tb;text-anchor:start;baseline-shift:baseline;color:#000000;fill:#000000;fill-opacity:1;fill-rule:nonzero;stroke:none;stroke-width:1px;marker:none;visibility:visible;display:inline;overflow:visible;enable-background:accumulate;font-family:Arial;-inkscape-font-specification:Arial"
       x="249.14944"
       y="810.88049"
       id="text4734"
       sodipodi:linespacing="125%"><tspan
         sodipodi:role="line"
         id="tspan4736"
         x="249.14944"
         y="810.88049">Basal artery</tspan></text>
    <text
       xml:space="preserve"
       style="font-size:31.78786659px;font-style:normal;font-variant:normal;font-weight:normal;font-stretch:normal;text-indent:0;text-align:start;text-decoration:none;line-height:125%;letter-spacing:0;word-spacing:0;text-transform:none;direction:ltr;block-progression:tb;writing-mode:lr-tb;text-anchor:start;baseline-shift:baseline;color:#000000;fill:#000000;fill-opacity:1;fill-rule:nonzero;stroke:none;stroke-width:1px;marker:none;visibility:visible;display:inline;overflow:visible;enable-background:accumulate;font-family:Arial;-inkscape-font-specification:Arial"
       x="249.14944"
       y="916.81879"
       id="text4738"
       sodipodi:linespacing="125%"><tspan
         sodipodi:role="line"
         id="tspan4740"
         x="249.14944"
         y="916.81879">Spiral artery</tspan></text>
    <text
       xml:space="preserve"
       style="font-size:31.78786659px;font-style:normal;font-variant:normal;font-weight:normal;font-stretch:normal;text-indent:0;text-align:start;text-decoration:none;line-height:125%;letter-spacing:0;word-spacing:0;text-transform:none;direction:ltr;block-progression:tb;writing-mode:lr-tb;text-anchor:start;baseline-shift:baseline;color:#000000;fill:#000000;fill-opacity:1;fill-rule:nonzero;stroke:none;stroke-width:1px;marker:none;visibility:visible;display:inline;overflow:visible;enable-background:accumulate;font-family:Arial;-inkscape-font-specification:Arial"
       x="222.8669"
       y="1066.7229"
       id="text4742"
       sodipodi:linespacing="125%"><tspan
         sodipodi:role="line"
         id="tspan4744"
         x="222.8669"
         y="1066.7229">Endometrium</tspan></text>
    <text
       xml:space="preserve"
       style="font-size:31.78786659px;font-style:normal;font-variant:normal;font-weight:normal;font-stretch:normal;text-indent:0;text-align:start;text-decoration:none;line-height:125%;letter-spacing:0;word-spacing:0;text-transform:none;direction:ltr;block-progression:tb;writing-mode:lr-tb;text-anchor:start;baseline-shift:baseline;color:#000000;fill:#000000;fill-opacity:1;fill-rule:nonzero;stroke:none;stroke-width:1px;marker:none;visibility:visible;display:inline;overflow:visible;enable-background:accumulate;font-family:Arial;-inkscape-font-specification:Arial"
       x="-46.875053"
       y="1189.0023"
       id="text4746"
       sodipodi:linespacing="125%"><tspan
         sodipodi:role="line"
         id="tspan4748"
         x="-46.875053"
         y="1189.0023">Uterine artery</tspan></text>
    <path
       style="fill:none;stroke:#000000;stroke-width:2.5;stroke-linecap:butt;stroke-linejoin:miter;stroke-opacity:1;stroke-miterlimit:4;stroke-dasharray:none"
       d="m -25.187186,1138.2947 c 10.926284,28.038 62.192999,-20.4889 106.409563,-16.1625 -22.308844,-11.3611 68.298953,-49.7003 62.761153,-74.2199"
       id="path4750"
       inkscape:connector-curvature="0"
       sodipodi:nodetypes="ccc"
       inkscape:transform-center-x="179.96895"
       inkscape:transform-center-y="104.38345" />
    <path
       style="fill:none;stroke:#000000;stroke-width:2.5;stroke-linecap:butt;stroke-linejoin:miter;stroke-opacity:1;stroke-miterlimit:4;stroke-dasharray:none"
       d="m 149.14103,1045.7584 c 10.92628,28.0381 25.56669,-7.2029 62.88656,-0.3834 -22.30883,-11.361 37.94486,-26.2077 32.40706,-50.72727"
       id="path4750-0"
       inkscape:connector-curvature="0"
       sodipodi:nodetypes="ccc"
       inkscape:transform-center-x="42.520749"
       inkscape:transform-center-y="33.204745" />
    <path
       style="fill:none;stroke:#000000;stroke-width:2.5;stroke-linecap:butt;stroke-linejoin:miter;stroke-opacity:1;stroke-miterlimit:4;stroke-dasharray:none"
       d="M 71.417785,36.312169 53.033009,54.696946"
       id="path4770"
       inkscape:connector-curvature="0"
       transform="translate(-188,528.03406)" />
    <path
       style="fill:none;stroke:#000000;stroke-width:2.5;stroke-linecap:butt;stroke-linejoin:miter;stroke-opacity:1;stroke-miterlimit:4;stroke-dasharray:none"
       d="m 250.3158,95.002032 -33.94113,0 -57.98275,113.137088"
       id="path4772"
       inkscape:connector-curvature="0"
       transform="translate(-188,528.03406)" />
    <path
       style="fill:none;stroke:#000000;stroke-width:2.5;stroke-linecap:butt;stroke-linejoin:miter;stroke-opacity:1;stroke-miterlimit:4;stroke-dasharray:none"
       d="m 383.25188,162.88428 -59.39697,0 -111.72288,74.95332"
       id="path4774"
       inkscape:connector-curvature="0"
       transform="translate(-188,528.03406)" />
    <path
       style="fill:none;stroke:#000000;stroke-width:2.5;stroke-linecap:butt;stroke-linejoin:miter;stroke-opacity:1;stroke-miterlimit:4;stroke-dasharray:none"
       d="m 434.16356,270.36451 -50.91168,0 -67.88226,-62.22539"
       id="path4776"
       inkscape:connector-curvature="0"
       transform="translate(-188,528.03406)" />
    <path
       style="fill:none;stroke:#000000;stroke-width:2.5;stroke-linecap:butt;stroke-linejoin:miter;stroke-opacity:1;stroke-miterlimit:4;stroke-dasharray:none"
       d="m 434.16356,377.84474 -56.56854,0 -53.74011,-29.69848"
       id="path4778"
       inkscape:connector-curvature="0"
       transform="translate(-188,528.03406)" />
    <path
       style="fill:none;stroke:#000000;stroke-width:2.5;stroke-linecap:butt;stroke-linejoin:miter;stroke-opacity:1;stroke-miterlimit:4;stroke-dasharray:none"
       d="m 137.17872,649.37375 -15.55635,0 -21.21321,-26.87006"
       id="path4780"
       inkscape:connector-curvature="0"
       transform="translate(-188,528.03406)" />
  </g>
</svg>
